<?xml version="1.0" encoding="UTF-8" standalone="no"?>
<!DOCTYPE svg PUBLIC "-//W3C//DTD SVG 1.1//EN"
 "http://www.w3.org/Graphics/SVG/1.1/DTD/svg11.dtd">
<!-- Generated by graphviz version 14.1.3 (20260303.0454)
 -->
<!-- Title: G Pages: 1 -->
<svg width="249pt" height="868pt"
 viewBox="0.00 0.00 249.00 868.00" xmlns="http://www.w3.org/2000/svg" xmlns:xlink="http://www.w3.org/1999/xlink">
<g id="graph0" class="graph" transform="scale(1 1) rotate(0) translate(18 850.45)">
<title>G</title>
<polygon fill="white" stroke="none" points="-18,18 -18,-850.45 230.95,-850.45 230.95,18 -18,18"/>
<!-- n0 -->
<g id="node1" class="node">
<title>n0</title>
<ellipse fill="none" stroke="black" cx="71.68" cy="-423.65" rx="19.8" ry="19.8"/>
<text xml:space="preserve" text-anchor="middle" x="71.68" y="-420.05" font-family="Arial" font-size="12.00">S0</text>
</g>
<!-- n1 -->
<g id="node2" class="node">
<title>n1</title>
<ellipse fill="none" stroke="black" stroke-dasharray="5,2" cx="186.31" cy="-808.65" rx="19.8" ry="19.8"/>
<ellipse fill="none" stroke="black" stroke-dasharray="5,2" cx="186.31" cy="-808.65" rx="23.8" ry="23.8"/>
<text xml:space="preserve" text-anchor="middle" x="186.31" y="-805.05" font-family="Arial" font-size="12.00">S1</text>
</g>
<!-- n0&#45;&gt;n1 -->
<g id="edge2" class="edge">
<title>n0&#45;&gt;n1</title>
<path fill="none" stroke="black" d="M74.23,-443.5C78,-486.83 89.32,-592.82 115.48,-677.65 129.32,-722.53 135.84,-733.17 159.66,-773.65 161.66,-777.05 163.92,-780.53 166.24,-783.9"/>
<polygon fill="black" stroke="black" points="164.24,-785.02 169.87,-789 167.95,-782.38 164.24,-785.02"/>
<text xml:space="preserve" text-anchor="middle" x="125.57" y="-733.79" font-family="Arial" font-size="11.00">C00</text>
</g>
<!-- n2 -->
<g id="node3" class="node">
<title>n2</title>
<ellipse fill="none" stroke="black" stroke-dasharray="5,2" cx="186.31" cy="-738.65" rx="19.8" ry="19.8"/>
<ellipse fill="none" stroke="black" stroke-dasharray="5,2" cx="186.31" cy="-738.65" rx="23.8" ry="23.8"/>
<text xml:space="preserve" text-anchor="middle" x="186.31" y="-735.05" font-family="Arial" font-size="12.00">S2</text>
</g>
<!-- n0&#45;&gt;n2 -->
<g id="edge3" class="edge">
<title>n0&#45;&gt;n2</title>
<path fill="none" stroke="black" d="M75.78,-443.31C81.52,-477.67 95.08,-550.61 115.48,-609.65 130.56,-653.28 136.09,-663.96 159.66,-703.65 161.67,-707.04 163.94,-710.51 166.27,-713.89"/>
<polygon fill="black" stroke="black" points="164.27,-715.01 169.9,-718.98 167.98,-712.37 164.27,-715.01"/>
<text xml:space="preserve" text-anchor="middle" x="125.57" y="-662.99" font-family="Arial" font-size="11.00">C01</text>
</g>
<!-- n3 -->
<g id="node4" class="node">
<title>n3</title>
<ellipse fill="none" stroke="black" stroke-dasharray="5,2" cx="186.31" cy="-668.65" rx="19.8" ry="19.8"/>
<ellipse fill="none" stroke="black" stroke-dasharray="5,2" cx="186.31" cy="-668.65" rx="23.8" ry="23.8"/>
<text xml:space="preserve" text-anchor="middle" x="186.31" y="-665.05" font-family="Arial" font-size="12.00">S3</text>
</g>
<!-- n0&#45;&gt;n3 -->
<g id="edge4" class="edge">
<title>n0&#45;&gt;n3</title>
<path fill="none" stroke="black" d="M78.43,-442.7C86,-467.14 100.16,-510.66 115.48,-546.65 132.46,-586.55 136.95,-596.7 159.66,-633.65 161.73,-637.01 164.02,-640.46 166.37,-643.83"/>
<polygon fill="black" stroke="black" points="164.37,-644.95 170,-648.91 168.07,-642.3 164.37,-644.95"/>
<text xml:space="preserve" text-anchor="middle" x="125.57" y="-594.56" font-family="Arial" font-size="11.00">C02</text>
</g>
<!-- n4 -->
<g id="node5" class="node">
<title>n4</title>
<ellipse fill="none" stroke="black" stroke-dasharray="5,2" cx="186.31" cy="-598.65" rx="19.8" ry="19.8"/>
<ellipse fill="none" stroke="black" stroke-dasharray="5,2" cx="186.31" cy="-598.65" rx="23.8" ry="23.8"/>
<text xml:space="preserve" text-anchor="middle" x="186.31" y="-595.05" font-family="Arial" font-size="12.00">S4</text>
</g>
<!-- n0&#45;&gt;n4 -->
<g id="edge5" class="edge">
<title>n0&#45;&gt;n4</title>
<path fill="none" stroke="black" d="M82.23,-440.88C90.7,-456 103.55,-478.5 115.48,-497.65 134.14,-527.61 139.41,-534.74 159.66,-563.65 161.92,-566.88 164.34,-570.26 166.74,-573.58"/>
<polygon fill="black" stroke="black" points="164.76,-574.72 170.42,-578.64 168.44,-572.05 164.76,-574.72"/>
<text xml:space="preserve" text-anchor="middle" x="125.57" y="-532.14" font-family="Arial" font-size="11.00">C03</text>
</g>
<!-- n5 -->
<g id="node6" class="node">
<title>n5</title>
<ellipse fill="none" stroke="black" stroke-dasharray="5,2" cx="186.31" cy="-528.65" rx="19.8" ry="19.8"/>
<ellipse fill="none" stroke="black" stroke-dasharray="5,2" cx="186.31" cy="-528.65" rx="23.8" ry="23.8"/>
<text xml:space="preserve" text-anchor="middle" x="186.31" y="-525.05" font-family="Arial" font-size="12.00">S5</text>
</g>
<!-- n0&#45;&gt;n5 -->
<g id="edge6" class="edge">
<title>n0&#45;&gt;n5</title>
<path fill="none" stroke="black" d="M86.94,-436.95C105.96,-454.68 139.84,-486.26 162.45,-507.34"/>
<polygon fill="black" stroke="black" points="160.81,-508.92 167.11,-511.68 163.91,-505.59 160.81,-508.92"/>
<text xml:space="preserve" text-anchor="middle" x="125.57" y="-482.6" font-family="Arial" font-size="11.00">C04</text>
</g>
<!-- n6 -->
<g id="node7" class="node">
<title>n6</title>
<ellipse fill="none" stroke="black" stroke-dasharray="5,2" cx="186.31" cy="-458.65" rx="19.8" ry="19.8"/>
<ellipse fill="none" stroke="black" stroke-dasharray="5,2" cx="186.31" cy="-458.65" rx="23.8" ry="23.8"/>
<text xml:space="preserve" text-anchor="middle" x="186.31" y="-455.05" font-family="Arial" font-size="12.00">S6</text>
</g>
<!-- n0&#45;&gt;n6 -->
<g id="edge7" class="edge">
<title>n0&#45;&gt;n6</title>
<path fill="none" stroke="black" d="M91.03,-429.35C108.49,-434.78 135.08,-443.04 155.57,-449.41"/>
<polygon fill="black" stroke="black" points="154.77,-451.54 161.65,-451.3 156.12,-447.19 154.77,-451.54"/>
<text xml:space="preserve" text-anchor="middle" x="125.57" y="-445.5" font-family="Arial" font-size="11.00">C05</text>
</g>
<!-- n7 -->
<g id="node8" class="node">
<title>n7</title>
<ellipse fill="none" stroke="black" stroke-dasharray="5,2" cx="186.31" cy="-388.65" rx="19.8" ry="19.8"/>
<ellipse fill="none" stroke="black" stroke-dasharray="5,2" cx="186.31" cy="-388.65" rx="23.8" ry="23.8"/>
<text xml:space="preserve" text-anchor="middle" x="186.31" y="-385.05" font-family="Arial" font-size="12.00">S7</text>
</g>
<!-- n0&#45;&gt;n7 -->
<g id="edge8" class="edge">
<title>n0&#45;&gt;n7</title>
<path fill="none" stroke="black" d="M91.03,-417.95C108.49,-412.52 135.08,-404.26 155.57,-397.89"/>
<polygon fill="black" stroke="black" points="156.12,-400.1 161.65,-396 154.77,-395.76 156.12,-400.1"/>
<text xml:space="preserve" text-anchor="middle" x="125.57" y="-413.61" font-family="Arial" font-size="11.00">C06</text>
</g>
<!-- n8 -->
<g id="node9" class="node">
<title>n8</title>
<ellipse fill="none" stroke="black" stroke-dasharray="5,2" cx="186.31" cy="-318.65" rx="19.8" ry="19.8"/>
<ellipse fill="none" stroke="black" stroke-dasharray="5,2" cx="186.31" cy="-318.65" rx="23.8" ry="23.8"/>
<text xml:space="preserve" text-anchor="middle" x="186.31" y="-315.05" font-family="Arial" font-size="12.00">S8</text>
</g>
<!-- n0&#45;&gt;n8 -->
<g id="edge9" class="edge">
<title>n0&#45;&gt;n8</title>
<path fill="none" stroke="black" d="M86.94,-410.35C105.96,-392.62 139.84,-361.03 162.45,-339.96"/>
<polygon fill="black" stroke="black" points="163.91,-341.71 167.11,-335.61 160.81,-338.38 163.91,-341.71"/>
<text xml:space="preserve" text-anchor="middle" x="125.57" y="-386.94" font-family="Arial" font-size="11.00">C07</text>
</g>
<!-- n9 -->
<g id="node10" class="node">
<title>n9</title>
<ellipse fill="none" stroke="black" stroke-dasharray="5,2" cx="186.31" cy="-248.65" rx="19.8" ry="19.8"/>
<ellipse fill="none" stroke="black" stroke-dasharray="5,2" cx="186.31" cy="-248.65" rx="23.8" ry="23.8"/>
<text xml:space="preserve" text-anchor="middle" x="186.31" y="-245.05" font-family="Arial" font-size="12.00">S9</text>
</g>
<!-- n0&#45;&gt;n9 -->
<g id="edge10" class="edge">
<title>n0&#45;&gt;n9</title>
<path fill="none" stroke="black" d="M82.21,-406.36C90.68,-391.19 103.53,-368.63 115.48,-349.45 134.11,-319.55 139.43,-312.48 159.66,-283.65 161.93,-280.42 164.34,-277.04 166.75,-273.72"/>
<polygon fill="black" stroke="black" points="168.44,-275.25 170.43,-268.66 164.76,-272.57 168.44,-275.25"/>
<text xml:space="preserve" text-anchor="middle" x="125.57" y="-352.75" font-family="Arial" font-size="11.00">C08</text>
</g>
<!-- n10 -->
<g id="node11" class="node">
<title>n10</title>
<ellipse fill="none" stroke="black" stroke-dasharray="5,2" cx="186.31" cy="-176.65" rx="22.65" ry="22.65"/>
<ellipse fill="none" stroke="black" stroke-dasharray="5,2" cx="186.31" cy="-176.65" rx="26.65" ry="26.65"/>
<text xml:space="preserve" text-anchor="middle" x="186.31" y="-173.05" font-family="Arial" font-size="12.00">S10</text>
</g>
<!-- n0&#45;&gt;n10 -->
<g id="edge11" class="edge">
<title>n0&#45;&gt;n10</title>
<path fill="none" stroke="black" d="M78.42,-404.56C85.98,-380.08 100.13,-336.49 115.48,-300.45 132.44,-260.62 137.46,-250.81 159.66,-213.65 161.52,-210.54 163.54,-207.35 165.61,-204.2"/>
<polygon fill="black" stroke="black" points="167.3,-205.76 169.04,-199.1 163.52,-203.22 167.3,-205.76"/>
<text xml:space="preserve" text-anchor="middle" x="125.57" y="-303.75" font-family="Arial" font-size="11.00">C09</text>
</g>
<!-- n11 -->
<g id="node12" class="node">
<title>n11</title>
<ellipse fill="none" stroke="black" stroke-dasharray="5,2" cx="186.31" cy="-101.65" rx="22.65" ry="22.65"/>
<ellipse fill="none" stroke="black" stroke-dasharray="5,2" cx="186.31" cy="-101.65" rx="26.65" ry="26.65"/>
<text xml:space="preserve" text-anchor="middle" x="186.31" y="-98.05" font-family="Arial" font-size="12.00">S11</text>
</g>
<!-- n0&#45;&gt;n11 -->
<g id="edge12" class="edge">
<title>n0&#45;&gt;n11</title>
<path fill="none" stroke="black" d="M75.9,-404C81.8,-369.67 95.62,-296.73 115.48,-237.45 130.76,-191.84 136.04,-180.55 159.66,-138.65 161.39,-135.58 163.31,-132.44 165.29,-129.36"/>
<polygon fill="black" stroke="black" points="167.15,-130.67 168.86,-123.99 163.36,-128.15 167.15,-130.67"/>
<text xml:space="preserve" text-anchor="middle" x="125.57" y="-240.75" font-family="Arial" font-size="11.00">C10</text>
</g>
<!-- n12 -->
<g id="node13" class="node">
<title>n12</title>
<ellipse fill="none" stroke="black" stroke-dasharray="5,2" cx="186.31" cy="-26.65" rx="22.65" ry="22.65"/>
<ellipse fill="none" stroke="black" stroke-dasharray="5,2" cx="186.31" cy="-26.65" rx="26.65" ry="26.65"/>
<text xml:space="preserve" text-anchor="middle" x="186.31" y="-23.05" font-family="Arial" font-size="12.00">S12</text>
</g>
<!-- n0&#45;&gt;n12 -->
<g id="edge13" class="edge">
<title>n0&#45;&gt;n12</title>
<path fill="none" stroke="black" d="M74.36,-403.6C78.38,-359.82 90.18,-252.67 115.48,-166.45 129.48,-118.73 135.56,-107.14 159.66,-63.65 161.37,-60.56 163.27,-57.42 165.24,-54.33"/>
<polygon fill="black" stroke="black" points="167.11,-55.64 168.8,-48.96 163.31,-53.13 167.11,-55.64"/>
<text xml:space="preserve" text-anchor="middle" x="125.57" y="-169.75" font-family="Arial" font-size="11.00">C11</text>
</g>
<!-- start -->
<g id="node14" class="node">
<title>start</title>
<ellipse fill="black" stroke="black" cx="1.44" cy="-423.65" rx="1.44" ry="1.44"/>
</g>
<!-- start&#45;&gt;n0 -->
<g id="edge1" class="edge">
<title>start&#45;&gt;n0</title>
<path fill="none" stroke="black" d="M3.21,-423.65C7.3,-423.65 26.99,-423.65 44.06,-423.65"/>
<polygon fill="black" stroke="black" points="43.64,-425.92 50.14,-423.65 43.64,-421.37 43.64,-425.92"/>
</g>
</g>
</svg>
