<?xml version="1.0" encoding="UTF-8" standalone="no"?>
<!DOCTYPE svg PUBLIC "-//W3C//DTD SVG 1.1//EN"
 "http://www.w3.org/Graphics/SVG/1.1/DTD/svg11.dtd">
<!-- Generated by graphviz version 14.1.3 (20260303.0454)
 -->
<!-- Title: G Pages: 1 -->
<svg width="211pt" height="264pt"
 viewBox="0.00 0.00 211.00 264.00" xmlns="http://www.w3.org/2000/svg" xmlns:xlink="http://www.w3.org/1999/xlink">
<g id="graph0" class="graph" transform="scale(1 1) rotate(0) translate(18 246.45)">
<title>G</title>
<polygon fill="white" stroke="none" points="-18,18 -18,-246.45 192.77,-246.45 192.77,18 -18,18"/>
<!-- n6 -->
<g id="node1" class="node">
<title>n6</title>
<ellipse fill="none" stroke="black" stroke-dasharray="5,2" cx="148.12" cy="-204.65" rx="19.8" ry="19.8"/>
<ellipse fill="none" stroke="black" stroke-dasharray="5,2" cx="148.12" cy="-204.65" rx="23.8" ry="23.8"/>
<text xml:space="preserve" text-anchor="middle" x="148.12" y="-201.05" font-family="Arial" font-size="12.00">S6</text>
</g>
<!-- n10 -->
<g id="node2" class="node">
<title>n10</title>
<ellipse fill="none" stroke="black" stroke-dasharray="5,2" cx="148.12" cy="-132.65" rx="22.65" ry="22.65"/>
<ellipse fill="none" stroke="black" stroke-dasharray="5,2" cx="148.12" cy="-132.65" rx="26.65" ry="26.65"/>
<text xml:space="preserve" text-anchor="middle" x="148.12" y="-129.05" font-family="Arial" font-size="12.00">S10</text>
</g>
<!-- n27 -->
<g id="node3" class="node">
<title>n27</title>
<ellipse fill="none" stroke="black" cx="148.12" cy="-26.65" rx="22.65" ry="22.65"/>
<ellipse fill="none" stroke="black" cx="148.12" cy="-26.65" rx="26.65" ry="26.65"/>
<text xml:space="preserve" text-anchor="middle" x="148.12" y="-23.05" font-family="Arial" font-size="12.00">S27</text>
</g>
<!-- n27&#45;&gt;n27 -->
<g id="edge1" class="edge">
<title>n27&#45;&gt;n27</title>
<path fill="none" stroke="black" d="M137.13,-51.18C135.44,-63.86 139.11,-75.29 148.12,-75.29 155.23,-75.29 159.02,-68.18 159.46,-58.94"/>
<polygon fill="black" stroke="black" points="161.75,-59.08 159.18,-52.69 157.2,-59.29 161.75,-59.08"/>
<text xml:space="preserve" text-anchor="middle" x="148.12" y="-78.59" font-family="Arial" font-size="11.00">K06</text>
</g>
<!-- n28 -->
<g id="node4" class="node">
<title>n28</title>
<ellipse fill="none" stroke="black" cx="26.65" cy="-132.65" rx="22.65" ry="22.65"/>
<ellipse fill="none" stroke="black" cx="26.65" cy="-132.65" rx="26.65" ry="26.65"/>
<text xml:space="preserve" text-anchor="middle" x="26.65" y="-129.05" font-family="Arial" font-size="12.00">S28</text>
</g>
<!-- n28&#45;&gt;n6 -->
<g id="edge2" class="edge">
<title>n28&#45;&gt;n6</title>
<path fill="none" stroke="black" d="M50.12,-146.19C70.04,-158.19 99.16,-175.75 120.3,-188.48"/>
<polygon fill="black" stroke="black" points="119.09,-190.41 125.84,-191.82 121.44,-186.52 119.09,-190.41"/>
<text xml:space="preserve" text-anchor="middle" x="87.38" y="-176.26" font-family="Arial" font-size="11.00">C05</text>
</g>
<!-- n28&#45;&gt;n10 -->
<g id="edge3" class="edge">
<title>n28&#45;&gt;n10</title>
<path fill="none" stroke="black" d="M53.57,-132.65C71.11,-132.65 94.44,-132.65 113.41,-132.65"/>
<polygon fill="black" stroke="black" points="113.23,-134.92 119.73,-132.65 113.23,-130.37 113.23,-134.92"/>
<text xml:space="preserve" text-anchor="middle" x="87.38" y="-135.95" font-family="Arial" font-size="11.00">C09</text>
</g>
<!-- n28&#45;&gt;n27 -->
<g id="edge4" class="edge">
<title>n28&#45;&gt;n27</title>
<path fill="none" stroke="black" d="M47.38,-115.14C67.73,-97.08 99.56,-68.85 121.77,-49.14"/>
<polygon fill="black" stroke="black" points="123.27,-50.85 126.63,-44.83 120.25,-47.44 123.27,-50.85"/>
<text xml:space="preserve" text-anchor="middle" x="87.38" y="-89.29" font-family="Arial" font-size="11.00">K06</text>
</g>
</g>
</svg>
