<?xml version="1.0" encoding="UTF-8" standalone="no"?>
<!DOCTYPE svg PUBLIC "-//W3C//DTD SVG 1.1//EN"
 "http://www.w3.org/Graphics/SVG/1.1/DTD/svg11.dtd">
<!-- Generated by graphviz version 14.1.3 (20260303.0454)
 -->
<!-- Title: G Pages: 1 -->
<svg width="712pt" height="1161pt"
 viewBox="0.00 0.00 712.00 1161.00" xmlns="http://www.w3.org/2000/svg" xmlns:xlink="http://www.w3.org/1999/xlink">
<g id="graph0" class="graph" transform="scale(1 1) rotate(0) translate(18 1143.42)">
<title>G</title>
<polygon fill="white" stroke="none" points="-18,18 -18,-1143.42 694.41,-1143.42 694.41,18 -18,18"/>
<!-- start -->
<g id="node1" class="node">
<title>start</title>
<ellipse fill="none" stroke="black" cx="123.16" cy="-1105.06" rx="37.8" ry="20.36"/>
<text xml:space="preserve" text-anchor="middle" x="123.16" y="-1101.46" font-family="Microsoft YaHei" font-size="12.00">开始</text>
</g>
<!-- input -->
<g id="node2" class="node">
<title>input</title>
<polygon fill="none" stroke="black" points="231.52,-1047.69 14.8,-1047.69 14.8,-1004.49 231.52,-1004.49 231.52,-1047.69"/>
<text xml:space="preserve" text-anchor="middle" x="123.16" y="-1029.69" font-family="Microsoft YaHei" font-size="12.00">接收预处理后的 Token 流</text>
<text xml:space="preserve" text-anchor="middle" x="123.16" y="-1015.29" font-family="Microsoft YaHei" font-size="12.00">保留源码位置，初始化诊断和作用域</text>
</g>
<!-- start&#45;&gt;input -->
<g id="edge1" class="edge">
<title>start&#45;&gt;input</title>
<path fill="none" stroke="black" d="M123.16,-1084.24C123.16,-1075.71 123.16,-1065.58 123.16,-1056.22"/>
<polygon fill="black" stroke="black" points="125.61,-1056.44 123.16,-1049.44 120.71,-1056.44 125.61,-1056.44"/>
</g>
<!-- valid -->
<g id="node3" class="node">
<title>valid</title>
<polygon fill="none" stroke="black" points="123.16,-967.49 22.36,-924.29 123.16,-881.09 223.96,-924.29 123.16,-967.49"/>
<text xml:space="preserve" text-anchor="middle" x="123.16" y="-927.89" font-family="Microsoft YaHei" font-size="12.00">有词法错误或</text>
<text xml:space="preserve" text-anchor="middle" x="123.16" y="-913.49" font-family="Microsoft YaHei" font-size="12.00">缺少结束标记？</text>
</g>
<!-- input&#45;&gt;valid -->
<g id="edge2" class="edge">
<title>input&#45;&gt;valid</title>
<path fill="none" stroke="black" d="M123.16,-1004.42C123.16,-996.12 123.16,-986.16 123.16,-976.15"/>
<polygon fill="black" stroke="black" points="125.61,-976.27 123.16,-969.27 120.71,-976.27 125.61,-976.27"/>
</g>
<!-- reject -->
<g id="node4" class="node">
<title>reject</title>
<ellipse fill="none" stroke="black" cx="146.16" cy="-30.55" rx="146.16" ry="30.55"/>
<text xml:space="preserve" text-anchor="middle" x="146.16" y="-34.15" font-family="Microsoft YaHei" font-size="12.00">返回失败 ParseResult</text>
<text xml:space="preserve" text-anchor="middle" x="146.16" y="-19.75" font-family="Microsoft YaHei" font-size="12.00">包含诊断，不提供正常可执行 AST</text>
</g>
<!-- valid&#45;&gt;reject -->
<g id="edge3" class="edge">
<title>valid&#45;&gt;reject</title>
<path fill="none" stroke="black" d="M106.95,-887.51C98.6,-865.9 90.16,-837.54 90.16,-811.29 90.16,-811.29 90.16,-811.29 90.16,-152.49 90.16,-122.09 104.92,-91.03 119.28,-68"/>
<polygon fill="black" stroke="black" points="121.16,-69.61 122.89,-62.39 117.04,-66.95 121.16,-69.61"/>
<text xml:space="preserve" text-anchor="middle" x="94.28" y="-515.99" font-family="Microsoft YaHei" font-size="11.00">是</text>
</g>
<!-- parse -->
<g id="node5" class="node">
<title>parse</title>
<polygon fill="none" stroke="black" points="471.24,-831.89 253.08,-831.89 253.08,-788.69 471.24,-788.69 471.24,-831.89"/>
<text xml:space="preserve" text-anchor="middle" x="362.16" y="-813.89" font-family="Microsoft YaHei" font-size="12.00">调用 parseTranslationUnit()</text>
<text xml:space="preserve" text-anchor="middle" x="362.16" y="-799.49" font-family="Microsoft YaHei" font-size="12.00">按各非终结符的 SELECT 选择分支</text>
</g>
<!-- valid&#45;&gt;parse -->
<g id="edge4" class="edge">
<title>valid&#45;&gt;parse</title>
<path fill="none" stroke="black" d="M170.66,-901.03C210.78,-882.23 268.14,-855.35 309.62,-835.91"/>
<polygon fill="black" stroke="black" points="310.5,-838.21 315.8,-833.02 308.42,-833.77 310.5,-838.21"/>
<text xml:space="preserve" text-anchor="middle" x="282.16" y="-853.19" font-family="Microsoft YaHei" font-size="11.00">否</text>
</g>
<!-- context -->
<g id="node6" class="node">
<title>context</title>
<polygon fill="none" stroke="black" points="550.6,-751.69 277.72,-751.69 277.72,-708.49 550.6,-708.49 550.6,-751.69"/>
<text xml:space="preserve" text-anchor="middle" x="414.16" y="-733.69" font-family="Microsoft YaHei" font-size="12.00">按当前作用域与名字角色分类 TYPE_NAME</text>
<text xml:space="preserve" text-anchor="middle" x="414.16" y="-719.29" font-family="Microsoft YaHei" font-size="12.00">仅语句入口以 ID + COLON 分类 LABEL_ID</text>
</g>
<!-- parse&#45;&gt;context -->
<g id="edge5" class="edge">
<title>parse&#45;&gt;context</title>
<path fill="none" stroke="black" d="M376.1,-788.34C382.1,-779.31 389.21,-768.62 395.64,-758.94"/>
<polygon fill="black" stroke="black" points="397.51,-760.55 399.35,-753.37 393.43,-757.84 397.51,-760.55"/>
</g>
<!-- step -->
<g id="node7" class="node">
<title>step</title>
<polygon fill="none" stroke="black" points="536.56,-671.49 291.76,-671.49 291.76,-599.49 536.56,-599.49 536.56,-671.49"/>
<text xml:space="preserve" text-anchor="middle" x="414.16" y="-653.49" font-family="Microsoft YaHei" font-size="12.00">匹配终结符 / 调用子分析函数</text>
<text xml:space="preserve" text-anchor="middle" x="414.16" y="-639.09" font-family="Microsoft YaHei" font-size="12.00">维护声明绑定与块作用域</text>
<text xml:space="preserve" text-anchor="middle" x="414.16" y="-624.69" font-family="Microsoft YaHei" font-size="12.00">检查赋值左部 UnaryExpression 形状</text>
<text xml:space="preserve" text-anchor="middle" x="414.16" y="-610.29" font-family="Microsoft YaHei" font-size="12.00">检查具名 / 抽象声明符约束</text>
</g>
<!-- context&#45;&gt;step -->
<g id="edge6" class="edge">
<title>context&#45;&gt;step</title>
<path fill="none" stroke="black" d="M414.16,-708.08C414.16,-699.83 414.16,-690.03 414.16,-680.37"/>
<polygon fill="black" stroke="black" points="416.61,-680.47 414.16,-673.47 411.71,-680.47 416.61,-680.47"/>
</g>
<!-- good -->
<g id="node8" class="node">
<title>good</title>
<polygon fill="none" stroke="black" points="414.16,-562.49 291.04,-519.29 414.16,-476.09 537.28,-519.29 414.16,-562.49"/>
<text xml:space="preserve" text-anchor="middle" x="414.16" y="-522.89" font-family="Microsoft YaHei" font-size="12.00">分支、匹配及</text>
<text xml:space="preserve" text-anchor="middle" x="414.16" y="-508.49" font-family="Microsoft YaHei" font-size="12.00">必要语法守卫成功？</text>
</g>
<!-- step&#45;&gt;good -->
<g id="edge7" class="edge">
<title>step&#45;&gt;good</title>
<path fill="none" stroke="black" d="M414.16,-599.3C414.16,-590.38 414.16,-580.62 414.16,-571.09"/>
<polygon fill="black" stroke="black" points="416.61,-571.32 414.16,-564.32 411.71,-571.32 416.61,-571.32"/>
</g>
<!-- recovery -->
<g id="node9" class="node">
<title>recovery</title>
<polygon fill="none" stroke="black" points="405.24,-426.89 151.08,-426.89 151.08,-369.29 405.24,-369.29 405.24,-426.89"/>
<text xml:space="preserve" text-anchor="middle" x="278.16" y="-408.89" font-family="Microsoft YaHei" font-size="12.00">记录位置和预期 Token</text>
<text xml:space="preserve" text-anchor="middle" x="278.16" y="-394.49" font-family="Microsoft YaHei" font-size="12.00">按 FOLLOW 与上下文同步点恢复</text>
<text xml:space="preserve" text-anchor="middle" x="278.16" y="-380.09" font-family="Microsoft YaHei" font-size="12.00">保证前进：消费 Token 或退出当前分析层</text>
</g>
<!-- good&#45;&gt;recovery -->
<g id="edge9" class="edge">
<title>good&#45;&gt;recovery</title>
<path fill="none" stroke="black" d="M379.49,-487.91C360.32,-471.1 336.45,-450.18 316.69,-432.86"/>
<polygon fill="black" stroke="black" points="318.45,-431.15 311.57,-428.38 315.22,-434.83 318.45,-431.15"/>
<text xml:space="preserve" text-anchor="middle" x="346.21" y="-448.19" font-family="Microsoft YaHei" font-size="11.00">否</text>
</g>
<!-- build -->
<g id="node10" class="node">
<title>build</title>
<polygon fill="none" stroke="black" points="607.16,-419.69 445.16,-419.69 445.16,-376.49 607.16,-376.49 607.16,-419.69"/>
<text xml:space="preserve" text-anchor="middle" x="526.16" y="-401.69" font-family="Microsoft YaHei" font-size="12.00">构造 AST</text>
<text xml:space="preserve" text-anchor="middle" x="526.16" y="-387.29" font-family="Microsoft YaHei" font-size="12.00">保持运算优先级与结合性</text>
</g>
<!-- good&#45;&gt;build -->
<g id="edge8" class="edge">
<title>good&#45;&gt;build</title>
<path fill="none" stroke="black" d="M444.17,-486.35C461.99,-467.39 484.31,-443.63 501.16,-425.7"/>
<polygon fill="black" stroke="black" points="502.61,-427.74 505.62,-420.96 499.04,-424.38 502.61,-427.74"/>
<text xml:space="preserve" text-anchor="middle" x="484.32" y="-448.19" font-family="Microsoft YaHei" font-size="11.00">是</text>
</g>
<!-- more -->
<g id="node11" class="node">
<title>more</title>
<polygon fill="none" stroke="black" points="495.16,-332.29 383.2,-289.09 495.16,-245.89 607.12,-289.09 495.16,-332.29"/>
<text xml:space="preserve" text-anchor="middle" x="495.16" y="-292.69" font-family="Microsoft YaHei" font-size="12.00">翻译单元</text>
<text xml:space="preserve" text-anchor="middle" x="495.16" y="-278.29" font-family="Microsoft YaHei" font-size="12.00">还有待分析内容？</text>
</g>
<!-- recovery&#45;&gt;more -->
<g id="edge10" class="edge">
<title>recovery&#45;&gt;more</title>
<path fill="none" stroke="black" d="M335.46,-368.84C367.54,-353.02 407.38,-333.38 439.24,-317.67"/>
<polygon fill="black" stroke="black" points="440.19,-319.93 445.38,-314.64 438.02,-315.54 440.19,-319.93"/>
</g>
<!-- build&#45;&gt;more -->
<g id="edge11" class="edge">
<title>build&#45;&gt;more</title>
<path fill="none" stroke="black" d="M520.11,-376.21C516.81,-364.82 512.59,-350.24 508.56,-336.33"/>
<polygon fill="black" stroke="black" points="510.94,-335.75 506.64,-329.71 506.23,-337.11 510.94,-335.75"/>
</g>
<!-- more&#45;&gt;context -->
<g id="edge12" class="edge">
<title>more&#45;&gt;context</title>
<path fill="none" stroke="black" d="M567.27,-304.94C614.74,-319.41 668.16,-346.86 668.16,-397.09 668.16,-636.49 668.16,-636.49 668.16,-636.49 668.16,-666.99 602.72,-690.38 538.27,-706.03"/>
<polygon fill="black" stroke="black" points="537.73,-703.64 531.48,-707.64 538.86,-708.41 537.73,-703.64"/>
<text xml:space="preserve" text-anchor="middle" x="672.28" y="-515.99" font-family="Microsoft YaHei" font-size="11.00">是</text>
</g>
<!-- endcheck -->
<g id="node12" class="node">
<title>endcheck</title>
<polygon fill="none" stroke="black" points="484.16,-196.69 383.36,-153.49 484.16,-110.29 584.96,-153.49 484.16,-196.69"/>
<text xml:space="preserve" text-anchor="middle" x="484.16" y="-157.09" font-family="Microsoft YaHei" font-size="12.00">已到 EOF 且</text>
<text xml:space="preserve" text-anchor="middle" x="484.16" y="-142.69" font-family="Microsoft YaHei" font-size="12.00">没有语法错误？</text>
</g>
<!-- more&#45;&gt;endcheck -->
<g id="edge13" class="edge">
<title>more&#45;&gt;endcheck</title>
<path fill="none" stroke="black" d="M491.77,-246.92C490.65,-233.33 489.4,-218.08 488.23,-203.94"/>
<polygon fill="black" stroke="black" points="490.7,-204.05 487.68,-197.27 485.81,-204.45 490.7,-204.05"/>
<text xml:space="preserve" text-anchor="middle" x="494.11" y="-217.99" font-family="Microsoft YaHei" font-size="11.00">否</text>
</g>
<!-- endcheck&#45;&gt;reject -->
<g id="edge15" class="edge">
<title>endcheck&#45;&gt;reject</title>
<path fill="none" stroke="black" d="M429.85,-133.06C374.91,-113.4 289.36,-82.79 226.56,-60.32"/>
<polygon fill="black" stroke="black" points="227.47,-58.04 220.05,-57.99 225.82,-62.65 227.47,-58.04"/>
<text xml:space="preserve" text-anchor="middle" x="319.28" y="-82.39" font-family="Microsoft YaHei" font-size="11.00">否</text>
</g>
<!-- success -->
<g id="node13" class="node">
<title>success</title>
<ellipse fill="none" stroke="black" cx="484.16" cy="-30.55" rx="137.88" ry="30.55"/>
<text xml:space="preserve" text-anchor="middle" x="484.16" y="-34.15" font-family="Microsoft YaHei" font-size="12.00">返回成功 ParseResult(AST)</text>
<text xml:space="preserve" text-anchor="middle" x="484.16" y="-19.75" font-family="Microsoft YaHei" font-size="12.00">交给项目语义检查</text>
</g>
<!-- endcheck&#45;&gt;success -->
<g id="edge14" class="edge">
<title>endcheck&#45;&gt;success</title>
<path fill="none" stroke="black" d="M484.16,-109.85C484.16,-96.69 484.16,-82.28 484.16,-69.46"/>
<polygon fill="black" stroke="black" points="486.61,-69.8 484.16,-62.8 481.71,-69.8 486.61,-69.8"/>
<text xml:space="preserve" text-anchor="middle" x="488.28" y="-82.39" font-family="Microsoft YaHei" font-size="11.00">是</text>
</g>
</g>
</svg>
